:FULLY-SPECIFIED
:FORCE-ALL-JOINTS-BE-3DOF
:DEGREES
645
root 5.58328 16.4738 -2.91688 16.2529 13.3361 -1.26859
lfemur -17.2225 21.8885 -26.3895
ltibia 35.0542 -0 0
lfoot -35.9525 10.549 -0.00548011
ltoes 23.8097 -0 0
rfemur -55.885 -26.7997 28.3335
rtibia 64.0362 -0 0
rfoot -5.02014 -4.54441 -0.0591081
rtoes 5.14336 -0 0
lowerback -1.00577 -3.62385 -4.95518
upperback -2.37782 -4.83514 0.636916
thorax -1.4242 -2.33585 3.41397
lowerneck -9.84532 -7.71415 -0.127583
upperneck 5.582 -10.9209 7.09839
head 3.82739 -5.07436 1.58238
lclavicle 3.04141e-014 1.27222e-014 0
lhumerus -41.1333 -68.0608 121.53
lradius 73.919 -0 0
lwrist 24.0258 0 0
lhand -5.14799 2.00976 0.000492389
lfingers 7.12502 -0 0
lthumb 20.6512 30.9311 0.000472179
rclavicle 3.04141e-014 1.27222e-014 0
rhumerus -32.3984 2.91889 -74.0432
rradius 73.5447 -0 0
rwrist -21.9945 0 0
rhand -28.0126 -40.0646 0.0712369
rfingers 7.12502 -0 0
rthumb -1.398 -70.0351 0.0686946
646
root 5.57148 16.4461 -2.85822 16.5761 12.3033 -1.09103
lfemur -17.5186 22.4037 -26.7196
ltibia 35.5162 -0 0
lfoot -36.0848 10.7073 -0.00511476
ltoes 23.3607 -0 0
rfemur -56.954 -27.3682 29.5285
rtibia 64.5649 -0 0
rfoot -5.65373 -4.18795 -0.055166
rtoes 4.5182 -0 0
lowerback -0.967211 -3.67327 -5.06229
upperback -2.29788 -4.90306 0.504243
thorax -1.35979 -2.37235 3.33536
lowerneck -9.79371 -7.67973 -0.199387
upperneck 5.11406 -10.8421 7.22412
head 3.71003 -5.04975 1.66378
lclavicle 3.04141e-014 1.27222e-014 0
lhumerus -41.7277 -68.5353 122.416
lradius 73.7308 -0 0
lwrist 24.214 0 0
lhand -5.14248 2.35119 0.00045956
lfingers 7.12502 -0 0
lthumb 20.6565 31.272 0.000440698
rclavicle 3.04141e-014 1.27222e-014 0
rhumerus -33.839 1.79837 -74.7161
rradius 71.4815 -0 0
rwrist -20.7973 0 0
rhand -28.2869 -41.0573 0.0664842
rfingers 7.12502 -0 0
rthumb -1.66293 -71.0261 0.0641115
647
root 5.55968 16.4184 -2.79956 16.8949 11.2695 -0.920083
lfemur -17.819 22.9172 -27.0538
ltibia 35.9782 -0 0
lfoot -36.217 10.8656 -0.00438406
ltoes 22.9117 -0 0
rfemur -58.0416 -27.9166 30.7414
rtibia 65.0936 -0 0
rfoot -6.28727 -3.83155 -0.0472826
rtoes 3.89304 -0 0
lowerback -0.928559 -3.72261 -5.16944
upperback -2.21778 -4.9708 0.371462
thorax -1.29533 -2.40876 3.25669
lowerneck -9.74215 -7.64524 -0.271154
upperneck 4.64641 -10.7622 7.34915
head 3.59271 -5.02499 1.74512
lclavicle 3.04141e-014 1.27222e-014 0
lhumerus -42.3553 -69.0063 123.334
lradius 73.5425 -0 0
lwrist 24.4021 0 0
lhand -5.13697 2.69261 0.000393904
lfingers 7.12502 -0 0
lthumb 20.6618 31.6128 0.000377736
rclavicle 3.04141e-014 1.27222e-014 0
rhumerus -35.2657 0.661377 -75.3603
rradius 69.4183 -0 0
rwrist -19.6001 0 0
rhand -28.561 -42.0499 0.0569803
rfingers 7.12502 -0 0
rthumb -1.92773 -72.0172 0.0549468
648
root 5.54788 16.3906 -2.7409 17.2094 10.2347 -0.755564
lfemur -18.1239 23.4291 -27.3922
ltibia 36.4402 -0 0
lfoot -36.3492 11.0239 -0.00328803
ltoes 22.4627 -0 0
rfemur -59.1477 -28.4443 31.972
rtibia 65.6224 -0 0
rfoot -6.92076 -3.47527 -0.0354591
rtoes 3.26788 -0 0
lowerback -0.889812 -3.77188 -5.27662
upperback -2.13751 -5.03835 0.238572
thorax -1.23081 -2.44508 3.17799
lowerneck -9.69063 -7.6107 -0.342884
upperneck 4.17907 -10.6814 7.47347
head 3.47542 -5.00005 1.8264
lclavicle 3.04141e-014 1.27222e-014 0
lhumerus -43.0181 -69.4735 124.288
lradius 73.3542 -0 0
lwrist 24.5902 0 0
lhand -5.13146 3.03403 0.000295423
lfingers 7.12502 -0 0
lthumb 20.6671 31.9537 0.000283297
rclavicle 3.04141e-014 1.27222e-014 0
rhumerus -36.6794 -0.491224 -75.9759
rradius 67.3551 -0 0
rwrist -18.4028 0 0
rhand -28.835 -43.0424 0.0427283
rfingers 7.12502 -0 0
rthumb -2.19233 -73.0082 0.0412035
649
root 5.53608 16.3629 -2.68225 17.5199 9.19916 -0.597309
lfemur -18.4332 23.9394 -27.735
ltibia 36.9022 -0 0
lfoot -36.4815 11.1822 -0.00182667
ltoes 22.0137 -0 0
rfemur -60.2719 -28.9508 33.2201
rtibia 66.1511 -0 0
rfoot -7.55416 -3.11913 -0.0196974
rtoes 2.64271 -0 0
lowerback -0.850971 -3.82108 -5.38385
upperback -2.05707 -5.10572 0.105573
thorax -1.16625 -2.48131 3.09924
lowerneck -9.63916 -7.57608 -0.414577
upperneck 3.71203 -10.5995 7.5971
head 3.35818 -4.97495 1.90763
lclavicle 3.04141e-014 1.27222e-014 0
lhumerus -43.7182 -69.9367 125.278
lradius 73.166 -0 0
lwrist 24.7784 0 0
lhand -5.12596 3.37546 0.00016412
lfingers 7.12502 -0 0
lthumb 20.6724 32.2945 0.000157384
rclavicle 3.04141e-014 1.27222e-014 0
rhumerus -38.0813 -1.6586 -76.5631
rradius 65.2919 -0 0
rwrist -17.2056 0 0
rhand -29.1087 -44.0349 0.0237328
rfingers 7.12502 -0 0
rthumb -2.45666 -73.9992 0.022886
650
root 5.52428 16.3352 -2.62359 17.8267 8.16274 -0.445163
lfemur -18.7471 24.4479 -28.0821
ltibia 37.3642 0 0
lfoot -36.6137 11.3405 0
ltoes 21.5647 0 0
rfemur -61.414 -29.4356 34.4855
rtibia 66.6798 0 0
rfoot -8.18745 -2.76319 0
rtoes 2.01755 0 0
lowerback -0.812036 -3.87021 -5.49111
upperback -1.97647 -5.1729 -0.0275347
thorax -1.10163 -2.51746 3.02045
lowerneck -9.58774 -7.54141 -0.486232
upperneck 3.2453 -10.5167 7.72
head 3.24098 -4.94969 1.98881
lclavicle 3.04141e-014 1.27222e-014 0
lhumerus -44.4578 -70.3955 126.307
lradius 72.9777 0 0
lwrist 24.9665 0 0
lhand -5.12045 3.71688 0
lfingers 7.12502 0 0
lthumb 20.6777 32.6354 0
rclavicle 3.04141e-014 1.27222e-014 0
rhumerus -39.4722 -2.83994 -77.1221
rradius 63.2287 0 0
rwrist -16.0084 0 0
rhand -29.382 -45.0273 0
rfingers 7.12502 0 0
rthumb -2.72063 -794.99 0
651
root 5.52198 16.3029 -2.51554 17.8042 7.17877 -0.147578
lfemur -18.2018 24.4727 -28.4085
ltibia 37.4088 -0 0
lfoot -36.8012 11.9516 -0.0100086
ltoes 20.5027 -0 0
rfemur -61.4122 -29.5178 34.9103
rtibia 67.0161 -0 0
rfoot -8.84871 -3.73464 0.0562563
rtoes 2.39582 -0 0
lowerback -0.760685 -4.013 -5.53978
upperback -1.94016 -5.36601 -0.0659925
thorax -1.07418 -2.61515 3.00652
lowerneck -9.63682 -7.39085 -0.496772
upperneck 3.05242 -10.2869 7.51799
head 3.16223 -4.84868 1.9393
lclavicle 1.41137e-014 6.36111e-015 0
lhumerus -43.8806 -70.6825 126.026
lradius 73.31 -0 0
lwrist 25.041 0 0
lhand -5.03902 3.67959 -0.000264968
lfingers 7.12502 -0 0
lthumb 20.7559 32.5894 -0.000314175
rclavicle 1.41137e-014 6.36111e-015 0
rhumerus -40.4468 -3.7472 -76.294
rradius 62.6879 -0 0
rwrist -16.0289 0 0
rhand -29.3291 -45.4167 -0.00179685
rfingers 7.12502 -0 0
rthumb -2.66958 -75.38 -0.00173796
652
root 5.51967 16.2706 -2.4075 17.7766 6.19494 0.149796
lfemur -17.6566 24.5003 -28.7346
ltibia 37.4534 -0 0
lfoot -36.9887 12.5628 -0.018017
ltoes 19.4408 -0 0
rfemur -61.4111 -29.6 35.3355
rtibia 67.3523 -0 0
rfoot -9.51083 -4.70668 0.10129
rtoes 2.77409 -0 0
lowerback -0.709203 -4.15574 -5.58859
upperback -1.9037 -5.55909 -0.104586
thorax -1.04671 -2.71284 2.99255
lowerneck -9.6859 -7.2403 -0.507439
upperneck 2.85885 -10.0577 7.31534
head 3.08341 -4.74773 1.88966
lclavicle 1.41137e-014 6.36111e-015 0
lhumerus -43.2907 -70.9685 125.733
lradius 73.6422 -0 0
lwrist 25.1154 0 0
lhand -4.95759 3.6423 -0.000476944
lfingers 7.12502 -0 0
lthumb 20.8341 32.5433 -0.000565515
rclavicle 1.41137e-014 6.36111e-015 0
rhumerus -41.4355 -4.64016 -75.4495
rradius 62.1471 -0 0
rwrist -16.0494 0 0
rhand -29.2763 -45.8061 -0.00323444
rfingers 7.12502 -0 0
rthumb -2.61853 -75.77 -0.00312843
653
root 5.51737 16.2382 -2.29945 17.7439 5.21125 0.447138
lfemur -17.1114 24.5308 -29.0606
ltibia 37.498 -0 0
lfoot -37.1764 13.174 -0.0240241
ltoes 18.3788 -0 0
rfemur -61.4107 -29.6822 35.761
rtibia 67.6886 -0 0
rfoot -10.1736 -5.67917 0.135082
rtoes 3.15236 -0 0
lowerback -0.657589 -4.29843 -5.63754
upperback -1.86711 -5.75215 -0.143315
thorax -1.01921 -2.81051 2.97852
lowerneck -9.735 -7.08976 -0.518233
upperneck 2.6646 -9.82926 7.11204
head 3.00452 -4.64686 1.83989
lclavicle 1.41137e-014 6.36111e-015 0
lhumerus -42.6876 -71.2535 125.426
lradius 73.9745 -0 0
lwrist 25.1899 0 0
lhand -4.87617 3.60502 -0.000635926
lfingers 7.12502 -0 0
lthumb 20.9124 32.4973 -0.000754022
rclavicle 1.41137e-014 6.36111e-015 0
rhumerus -42.4388 -5.51835 -74.5886
rradius 61.6062 -0 0
rwrist -16.0699 0 0
rhand -29.2234 -46.1956 -0.00431268
rfingers 7.12502 -0 0
rthumb -2.56746 -76.16 -0.00417134
654
root 5.51507 16.2059 -2.19141 17.7062 4.22775 0.74462
lfemur -16.5663 24.5641 -29.3863
ltibia 37.5426 -0 0
lfoot -37.3641 13.7851 -0.0280293
ltoes 17.3168 -0 0
rfemur -61.4109 -29.7644 36.1868
rtibia 68.0249 -0 0
rfoot -10.8369 -6.65199 0.157617
rtoes 3.53063 -0 0
lowerback -0.605843 -4.44109 -5.68663
upperback -1.83037 -5.94518 -0.182182
thorax -0.991689 -2.90818 2.96445
lowerneck -9.78411 -6.93922 -0.529152
upperneck 2.46967 -9.60148 6.9081
head 2.92554 -4.54605 1.78999
lclavicle 1.41137e-014 6.36111e-015 0
lhumerus -42.0707 -71.5374 125.105
lradius 74.3068 -0 0
lwrist 25.2644 0 0
lhand -4.79474 3.56773 -0.000741914
lfingers 7.12502 -0 0
lthumb 20.9906 32.4513 -0.000879693
rclavicle 1.41137e-014 6.36111e-015 0
rhumerus -43.4568 -6.38128 -73.7109
rradius 61.0654 -0 0
rwrist -16.0904 0 0
rhand -29.1705 -46.585 -0.00503154
rfingers 7.12502 -0 0
rthumb -2.51639 -76.55 -0.00486664
655
root 5.51276 16.1736 -2.08336 17.6633 3.24446 1.04242
lfemur -16.0212 24.6001 -29.7117
ltibia 37.5872 -0 0
lfoot -37.5518 14.3963 -0.030032
ltoes 16.2549 -0 0
rfemur -61.4119 -29.8466 36.613
rtibia 68.3611 -0 0
rfoot -11.5004 -7.625 0.168888
rtoes 3.9089 -0 0
lowerback -0.553965 -4.5837 -5.73585
upperback -1.79348 -6.13819 -0.221187
thorax -0.964139 -3.00585 2.95033
lowerneck -9.83324 -6.7887 -0.540199
upperneck 2.27404 -9.37437 6.70352
head 2.84649 -4.44531 1.73995
lclavicle 1.41137e-014 6.36111e-015 0
lhumerus -41.4395 -71.8202 124.769
lradius 74.639 -0 0
lwrist 25.3389 0 0
lhand -4.71331 3.53044 -0.000794909
lfingers 7.12502 -0 0
lthumb 21.0688 32.4053 -0.000942528
rclavicle 1.41137e-014 6.36111e-015 0
rhumerus -44.4898 -7.22845 -72.8164
rradius 60.5246 -0 0
rwrist -16.1109 0 0
rhand -29.1176 -46.9744 -0.00539098
rfingers 7.12502 -0 0
rthumb -2.46532 -76.94 -0.0052143
